<?xml version="1.0" encoding="UTF-8" standalone="no"?>
<!-- Created with Inkscape (http://www.inkscape.org/) -->

<svg
   xmlns:dc="http://purl.org/dc/elements/1.1/"
   xmlns:cc="http://creativecommons.org/ns#"
   xmlns:rdf="http://www.w3.org/1999/02/22-rdf-syntax-ns#"
   xmlns:svg="http://www.w3.org/2000/svg"
   xmlns="http://www.w3.org/2000/svg"
   xmlns:sodipodi="http://sodipodi.sourceforge.net/DTD/sodipodi-0.dtd"
   xmlns:inkscape="http://www.inkscape.org/namespaces/inkscape"
   width="1007.305mm"
   height="1003.6674mm"
   viewBox="0 0 1007.305 1003.6674"
   version="1.1"
   id="svg8"
   inkscape:version="0.92.4 (5da689c313, 2019-01-14)"
   sodipodi:docname="icon.svg">
  <defs
     id="defs2" />
  <sodipodi:namedview
     id="base"
     pagecolor="#ffffff"
     bordercolor="#666666"
     borderopacity="1.0"
     inkscape:pageopacity="0.0"
     inkscape:pageshadow="2"
     inkscape:zoom="0.175"
     inkscape:cx="542.02359"
     inkscape:cy="1501.9433"
     inkscape:document-units="mm"
     inkscape:current-layer="layer1"
     showgrid="false"
     fit-margin-top="65"
     fit-margin-left="135"
     fit-margin-right="135"
     fit-margin-bottom="65"
     inkscape:window-width="3440"
     inkscape:window-height="1377"
     inkscape:window-x="-8"
     inkscape:window-y="479"
     inkscape:window-maximized="1" />
  <metadata
     id="metadata5">
    <rdf:RDF>
      <cc:Work
         rdf:about="">
        <dc:format>image/svg+xml</dc:format>
        <dc:type
           rdf:resource="http://purl.org/dc/dcmitype/StillImage" />
        <dc:title></dc:title>
      </cc:Work>
    </rdf:RDF>
  </metadata>
  <g
     inkscape:label="Layer 1"
     inkscape:groupmode="layer"
     id="layer1"
     transform="translate(-12.31506,697.22433)">
    <path
       style="fill:#1976d2;fill-opacity:1;stroke-width:1.86620533"
       d="m 190.91336,165.27912 c -46.77288,-62.98824 -46.72999,-138.698156 -6.81333,-200.831305 64.48385,-97.480535 201.04239,-108.990095 289.2875,-69.368635 92.26607,40.33158 65.4673,129.105609 108.95057,104.00538218 1.52945,-1.59735798 31.10076,-46.87811718 38.01353,-58.20784718 11.46205,-18.78578 25.44366,-47.451665 38.47714,-78.888085 6.39329,-15.42044 16.38109,-39.39222 22.19511,-53.2706 23.90695,-57.06724 78.66467,-217.33007 87.26708,-255.41014 0.84149,-3.72454 0.49053,-3.87533 -4.92434,-2.11666 -18.32738,5.95253 -35.04918,7.73308 -73.83961,7.86247 -31.15029,0.10393 -44.20455,-0.62383 -58.69306,-3.27188 -10.24799,-1.87299 -25.75972,-4.65114 -34.4705,-6.17361 -8.7108,-1.52251 -20.86864,-4.31407 -27.01743,-6.20349 -6.14882,-1.88945 -16.21047,-4.88955 -22.35927,-6.66695 -27.34147,-7.90338 -36.60263,-11.41416 -54.96649,-20.83705 -30.9312,-13.37608 -58.8176,-44.69733 -83.24768,-47.51365 -40.16583,-6.34961 -70.03359,4.80199 -101.21619,21.15282 -30.92127,16.19981 -47.09777,29.97365 -62.08814,52.86637 -46.2764,70.90486 21.10683,202.32631 51.79025,91.50318 8.98813,-37.01596 58.76169,-36.68593 71.32685,-14.90965 5.12815,9.86996 5.96525,17.86815 3.31829,31.7049 -18.43344,105.75754 -140.33044,137.7658 -191.94572,79.59852 -20.13293,-24.52818 -32.64286,-65.41585 -32.64286,-106.69043 3.55882,-94.56071 45.95756,-160.89502 123.90754,-201.91403 66.18675,-34.75358 163.97505,-45.69979 213.10641,-2.52689 10.95215,9.71262 28.32573,21.42544 42.38707,28.57632 16.18231,8.22946 71.33703,25.14338 89.21171,27.35791 5.12399,0.63483 13.50871,1.95376 18.6327,2.93095 37.92918,7.23342 82.10331,6.74778 108.76809,-1.19577 11.47051,-3.41709 25.02035,-14.9353 35.05925,-29.80265 3.47079,-5.14014 8.92786,-13.03846 12.12685,-17.55184 3.19899,-4.51335 10.50297,-17.52563 16.23129,-28.91616 8.38369,-16.67068 11.93402,-21.77446 18.20294,-26.16749 15.45452,-10.82996 36.76209,-8.14268 49.74562,6.27389 12.52246,13.90447 12.9856,24.6566 2.57735,59.8196 -2.58654,8.73826 -5.24398,19.25219 -5.90539,23.36431 -0.66141,4.11211 -3.63417,15.88771 -6.60637,26.16801 -4.95943,17.1542 -6.92958,24.42661 -14.30466,52.80331 -1.40272,5.39716 -3.69814,14.22887 -5.10086,19.62602 -5.62308,21.63618 -9.56095,35.38608 -18.06601,63.08361 -9.91528,32.2907 -45.09195,135.98797 -47.96343,141.39172 -1.01312,1.90682 -3.55145,8.51364 -5.64052,14.68182 -8.25596,24.3756 -16.56181,45.4814 -32.73268,83.1769 -6.83569,15.93445 -14.20522,33.1773 -16.37677,38.317435 -12.76131,30.20658 -29.06982,63.10054 -38.92157,78.504056 -31.24753,48.856453 -37.86021,58.587962 -65.33506,96.15003 -51.10364,62.267349 -104.1365,124.227999 -181.40154,151.268949 -6.14879,2.09508 -22.47314,5.95065 -36.27635,8.56793 -82.16537,14.27404 -164.5574,-11.52618 -211.72731,-72.3216 z"
       id="path853"
       inkscape:connector-curvature="0"
       sodipodi:nodetypes="ccccsssccscccccccccccccccccscsccsccscsccccccscccc" />
  </g>
</svg>
